# xmcd
#
# Track frame offsets:
#	150
#	15907
#	28267
#	42972
#	65792
#	80902
#	92920
#	105607
#	117995
#	128030
#	145700
#	156192
#	170367
#	187165
#
# Disc length: 2798 seconds
#
# Revision: 2
# Processed by: cddbd v1.5.2PL0 Copyright (c) Steve Scherf et al.
# Submitted via: EasyCDDAExtractor 9.0.0.1
#
DISCID=c10aec0e
DTITLE=Various Artist - DAMAS NEGRAS-CD2
DYEAR=1994
DGENRE=Blues
TTITLE0=Billie Holiday - Blue Moon
TTITLE1=Dionne Warwick - I'll Never Fall In Love Again
TTITLE2=Sarah Vaughn - Lover Man
TTITLE3=Nina Simone - Porgy
TTITLE4=Martha Reeves - I Heard It Through The Grapevine
TTITLE5=Etta James - I'd Rather Go Blind
TTITLE6=Tina Turner - Stand By Your Man
TTITLE7=Dinah Washington - Unforgettable
TTITLE8=Gladys Knight and The Pips - Operator
TTITLE9=Shirley Bassey - Send In The Clowns
TTITLE10=Aretha Franklin - Think
TTITLE11=Ella Fitzgerald - Basin Street Blues
TTITLE12=Lena Horne - Everytime We Say Goodbye
TTITLE13=Dee Dee Bridgewater - Till The Next Somewhere
EXTD=
EXTT0=
EXTT1=
EXTT2=
EXTT3=
EXTT4=
EXTT5=
EXTT6=
EXTT7=
EXTT8=
EXTT9=
EXTT10=
EXTT11=
EXTT12=
EXTT13=
PLAYORDER=
